<svg xmlns="http://www.w3.org/2000/svg" viewBox="800.2404 49.08008 17.88208 15.263672" width="17.88208" height="15.263672">
<path d="M 817.5475 56.711914 C 817.5475 56.421385 817.4266 56.15039 817.1849 55.898926 C 816.9432 55.64746 816.6167 55.444825 816.2053 55.291016 C 815.7939 55.137206 815.3356 55.0603 814.8302 55.0603 L 811.7284 55.0603 C 811.5209 55.0603 811.3652 55.03528 811.2615 54.98523 C 811.1577 54.93518 811.0424 54.84302 810.9154 54.70874 L 805.8654 49.34375 C 805.6969 49.16797 805.50525 49.08008 805.2904 49.08008 L 804.2101 49.08008 C 804.1149 49.08008 804.0435 49.11731 803.99585 49.19177 C 803.9482 49.266236 803.9501 49.354736 804.0013 49.457275 L 806.61975 55.045654 L 802.8075 55.4668 L 801.4452 53.12671 C 801.34265 52.948485 801.1754 52.859375 800.9435 52.859375 L 800.5956 52.859375 C 800.493 52.859375 800.4082 52.891723 800.3411 52.95642 C 800.2739 53.02112 800.2404 53.105957 800.2404 53.21094 L 800.2404 60.21289 C 800.2404 60.31543 800.2739 60.39905 800.3411 60.463745 C 800.4082 60.52844 800.493 60.56079 800.5956 60.56079 L 800.9435 60.56079 C 801.1754 60.56079 801.34265 60.4729 801.4452 60.29712 L 802.8075 57.95703 L 806.61975 58.37451 L 804.0013 63.96289 C 803.9501 64.06543 803.9482 64.15454 803.99585 64.230225 C 804.0435 64.30591 804.1149 64.34375 804.2101 64.34375 L 805.2904 64.34375 C 805.50525 64.34375 805.6969 64.25586 805.8654 64.08008 L 810.9154 58.707764 C 811.0424 58.573486 811.1577 58.482544 811.2615 58.43494 C 811.3652 58.38733 811.5209 58.363525 811.7284 58.363525 L 814.8302 58.363525 C 815.3356 58.363525 815.7939 58.28601 816.2053 58.13098 C 816.6167 57.97595 816.9432 57.77332 817.1849 57.52307 C 817.4266 57.272826 817.5475 57.00244 817.5475 56.711914 Z" fill="FILL_REPLACE"/>
</svg>
