<svg xmlns="http://www.w3.org/2000/svg" viewBox="487 1.9326172 50.35034 46.42822" width="50.35034" height="46.42822">
<path d="M 510.2031 48.36084 C 513.3965 48.36084 516.3921 47.7566 519.18994 46.548096 C 521.9878 45.339594 524.4524 43.666026 526.58374 41.527344 C 528.7151 39.38866 530.38867 36.920424 531.6045 34.12256 C 532.8203 31.324693 533.4282 28.329118 533.4282 25.135742 C 533.4282 21.957015 532.8203 18.968764 531.6045 16.170898 C 530.38867 13.373033 528.7151 10.904796 526.58374 8.766113 C 524.4524 6.627431 521.98414 4.9538635 519.17896 3.7453613 C 516.37377 2.5368592 513.38185 1.9326172 510.2031 1.9326172 C 507.0244 1.9326172 504.0325 2.5368592 501.2273 3.7453613 C 498.4221 4.9538635 495.95387 6.627431 493.8225 8.766113 C 491.69115 10.904796 490.02125 13.373033 488.81274 16.170898 C 487.60424 18.968764 487 21.957015 487 25.135742 C 487 28.329118 487.60424 31.324693 488.81274 34.12256 C 490.02125 36.920424 491.6948 39.38866 493.8335 41.527344 C 495.9722 43.666026 498.4404 45.339594 501.2383 46.548096 C 504.03615 47.7566 507.0244 48.36084 510.2031 48.36084 Z M 510.2031 42.58203 C 507.80077 42.58203 505.54493 42.127934 503.43555 41.219727 C 501.32616 40.31152 499.47315 39.06275 497.87646 37.47339 C 496.2798 35.884025 495.0347 34.03468 494.1411 31.925293 C 493.24755 29.815907 492.8008 27.552746 492.8008 25.135742 C 492.8008 22.718738 493.24755 20.45924 494.1411 18.357178 C 495.0347 16.255116 496.2798 14.40577 497.87646 12.809082 C 499.47315 11.212394 501.3225 9.963628 503.42456 9.062744 C 505.5266 8.161861 507.7861 7.711426 510.2031 7.711426 C 512.6201 7.711426 514.8796 8.161861 516.9817 9.062744 C 519.08375 9.963628 520.9331 11.212394 522.5298 12.809082 C 524.1265 14.40577 525.3789 16.255116 526.2871 18.357178 C 527.1953 20.45924 527.6494 22.718738 527.6494 25.135742 C 527.6494 27.552746 527.199 29.815907 526.2981 31.925293 C 525.3972 34.03468 524.14845 35.884025 522.55176 37.47339 C 520.9551 39.06275 519.10206 40.31152 516.9927 41.219727 C 514.8833 42.127934 512.6201 42.58203 510.2031 42.58203 Z M 499.2827 26.871582 L 507.28076 26.871582 C 507.79346 26.871582 508.0498 27.127927 508.0498 27.640625 L 508.0498 35.594727 C 508.0498 36.283207 508.26587 36.795897 508.698 37.132812 C 509.1301 37.46973 509.6172 37.57593 510.1592 37.451416 C 510.7012 37.326904 511.126 36.920414 511.4336 36.231934 L 519.959 17.774902 C 520.2666 17.11572 520.3032 16.511477 520.06885 15.962158 C 519.8345 15.412839 519.4426 15.02466 518.8933 14.797607 C 518.344 14.570556 517.73975 14.603514 517.08057 14.896484 L 498.6455 23.487793 C 497.9424 23.795412 497.5322 24.220212 497.41504 24.762207 C 497.29785 25.304202 497.4077 25.791258 497.7446 26.22339 C 498.08154 26.65552 498.59423 26.871582 499.2827 26.871582 Z" fill="FILL_REPLACE"/>
</svg>
