<svg xmlns="http://www.w3.org/2000/svg" viewBox="553.454 1.9326172 50.35034 46.42822" width="50.35034" height="46.42822" fill="none">
<path d="M 576.6571 48.36084 C 579.8505 48.36084 582.84606 47.7566 585.6439 46.548096 C 588.4418 45.339594 590.90636 43.666026 593.0377 41.527344 C 595.1691 39.38866 596.84265 36.920424 598.0585 34.12256 C 599.2743 31.324693 599.8822 28.329118 599.8822 25.135742 C 599.8822 21.957015 599.2743 18.968764 598.0585 16.170898 C 596.84265 13.373033 595.1691 10.904796 593.0377 8.766113 C 590.90636 6.627431 588.4381 4.9538635 585.6329 3.7453613 C 582.82774 2.5368592 579.8358 1.9326172 576.6571 1.9326172 C 573.4784 1.9326172 570.48646 2.5368592 567.6813 3.7453613 C 564.8761 4.9538635 562.40785 6.627431 560.2765 8.766113 C 558.1451 10.904796 556.4752 13.373033 555.2667 16.170898 C 554.0582 18.968764 553.454 21.957015 553.454 25.135742 C 553.454 28.329118 554.0582 31.324693 555.2667 34.12256 C 556.4752 36.920424 558.1488 39.38866 560.2875 41.527344 C 562.42616 43.666026 564.8944 45.339594 567.69226 46.548096 C 570.4901 47.7566 573.4784 48.36084 576.6571 48.36084 Z M 565.2533 26.915527 C 564.5209 26.915527 563.9752 26.68848 563.6163 26.234375 C 563.25744 25.78027 563.1439 25.26758 563.27576 24.69629 C 563.4076 24.124997 563.8397 23.6709 564.57214 23.333984 L 583.974 14.303223 C 584.6625 13.995604 585.2997 13.962645 585.8856 14.204346 C 586.47156 14.446046 586.88904 14.856198 587.13806 15.434814 C 587.3871 16.01343 587.3505 16.654293 587.0282 17.357422 L 578.06335 36.759277 C 577.72644 37.491703 577.27234 37.923827 576.70105 38.055664 C 576.12976 38.1875 575.6134 38.07764 575.152 37.726074 C 574.69055 37.37451 574.45984 36.8252 574.45984 36.078125 L 574.45984 27.728516 C 574.45984 27.18652 574.1962 26.915527 573.6688 26.915527 Z" fill="FILL_REPLACE"/>
</svg>
